<svg width="80" viewBox="0 0 1024 1024" version="1.1" xmlns="http://www.w3.org/2000/svg" p-id="6450" xmlns:xlink="http://www.w3.org/1999/xlink"><path d="M379.136 358.4a5.376 5.376 0 0 1-5.504-5.376v-147.2a5.504 5.504 0 0 1 10.88 0v147.072a5.376 5.376 0 0 1-5.376 5.504zM603.52 358.4a5.376 5.376 0 0 1-5.376-5.376v-147.2a5.504 5.504 0 0 1 10.88 0v147.072a5.376 5.376 0 0 1-5.504 5.504z" p-id="6451"></path><path d="M696.448 815.232h-409.6a27.136 27.136 0 0 1-27.136-27.136v-409.6a27.136 27.136 0 0 1 27.136-27.136h409.6a27.136 27.136 0 0 1 27.136 27.136v409.6a27.136 27.136 0 0 1-27.136 27.136z m-409.6-453.632a16.256 16.256 0 0 0-16.256 16.256v410.24a16.256 16.256 0 0 0 16.256 16.256h409.6a16.256 16.256 0 0 0 16.256-16.256v-409.6a16.256 16.256 0 0 0-16.256-16.256z" p-id="6452"></path><path d="M526.72 574.592h-24.448L506.88 524.8h-0.768l-50.048 65.536v0.64h23.936l-4.736 51.2z" p-id="6453"></path></svg>