<svg width="80" viewBox="0 0 1024 1024" version="1.1" xmlns="http://www.w3.org/2000/svg" p-id="7023" xmlns:xlink="http://www.w3.org/1999/xlink"><path d="M665.6 269.696a5.376 5.376 0 0 1-5.376-5.376v-76.8h-102.4v76.8a5.504 5.504 0 0 1-10.88 0v-82.176a5.504 5.504 0 0 1 5.504-5.504H665.6a5.504 5.504 0 0 1 5.504 5.504v82.176a5.376 5.376 0 0 1-5.504 5.376zM593.408 877.824a5.376 5.376 0 0 1-5.376-5.504V584.448a5.504 5.504 0 0 1 10.88 0v287.872a5.504 5.504 0 0 1-5.504 5.504zM620.8 877.824a5.504 5.504 0 0 1-5.504-5.504V584.448a5.504 5.504 0 0 1 10.88 0v287.872a5.376 5.376 0 0 1-5.376 5.504z" p-id="7024"></path><path d="M648.192 587.392h-80.128a5.376 5.376 0 0 1-5.376-5.376V512a76.8 76.8 0 0 1-41.856-60.544 7.552 7.552 0 0 1 0-1.792v-184.32a5.376 5.376 0 0 1 5.376-5.376h164.096a5.376 5.376 0 0 1 5.376 5.376v184.064a4.736 4.736 0 0 1 0 1.92A75.776 75.776 0 0 1 653.568 512v70.272a5.376 5.376 0 0 1-5.376 5.12zM573.568 576h69.12v-67.584a5.376 5.376 0 0 1 3.072-4.864 65.92 65.92 0 0 0 38.4-54.4 3.584 3.584 0 0 1 0-1.152V270.848h-153.6V448a3.584 3.584 0 0 1 0 1.152 65.92 65.92 0 0 0 38.4 54.4 5.376 5.376 0 0 1 3.072 4.864zM459.264 246.144a5.376 5.376 0 0 1-5.376-5.504v-75.648a16.256 16.256 0 0 0-16.256-16.256H357.12a16.256 16.256 0 0 0-16.384 16.256v75.648a5.504 5.504 0 1 1-10.88 0v-75.648a27.264 27.264 0 0 1 27.264-27.136h80.512a27.136 27.136 0 0 1 27.136 27.136v75.648a5.504 5.504 0 0 1-5.504 5.504zM385.024 877.824a5.504 5.504 0 0 1-5.504-5.504V576a5.504 5.504 0 0 1 10.88 0v296.32a5.376 5.376 0 0 1-5.376 5.504zM412.288 877.824a5.376 5.376 0 0 1-5.376-5.504V576a5.376 5.376 0 0 1 5.376-5.376 5.376 5.376 0 0 1 5.376 5.376v296.32a5.376 5.376 0 0 1-5.376 5.504z" p-id="7025"></path><path d="M440.96 577.664h-87.296a5.376 5.376 0 0 1-5.376-5.504V499.2a78.72 78.72 0 0 1-45.568-62.592 4.224 4.224 0 0 1 0-1.92V244.48a5.504 5.504 0 0 1 5.504-5.504H486.4a5.376 5.376 0 0 1 5.376 5.504V435.2a5.248 5.248 0 0 1 0 2.048A78.72 78.72 0 0 1 446.336 499.2v72.96a5.376 5.376 0 0 1-5.376 5.504z m-81.792-10.88h76.8v-70.784a5.504 5.504 0 0 1 3.2-4.864A68.224 68.224 0 0 0 481.152 435.2V249.856H313.216v183.552a4.608 4.608 0 0 1 0 1.28 68.224 68.224 0 0 0 42.496 56.448 5.504 5.504 0 0 1 3.2 4.864zM418.304 216.064a5.376 5.376 0 0 1-5.376-5.376v-25.6a5.504 5.504 0 1 1 10.88 0v25.6a5.376 5.376 0 0 1-5.504 5.376zM378.496 216.064a5.376 5.376 0 0 1-5.376-5.376v-25.6a5.504 5.504 0 1 1 10.88 0v25.6a5.376 5.376 0 0 1-5.504 5.376z" p-id="7026"></path></svg>