<svg width="80" viewBox="0 0 1024 1024" version="1.1" xmlns="http://www.w3.org/2000/svg" p-id="9260" xmlns:xlink="http://www.w3.org/1999/xlink"><defs></defs><path d="M564.992 677.632h-101.12a5.504 5.504 0 0 1 0-10.88h101.12a5.504 5.504 0 1 1 0 10.88zM365.824 779.136H241.92a30.208 30.208 0 0 1-30.208-30.208V605.312a30.208 30.208 0 0 1 30.208-30.208h123.904a30.208 30.208 0 0 1 30.208 30.208v143.616a30.208 30.208 0 0 1-30.208 30.208z m-123.904-193.28a19.456 19.456 0 0 0-19.328 19.456v143.616A19.456 19.456 0 0 0 241.92 768h123.904a19.456 19.456 0 0 0 19.328-19.328v-143.36a19.456 19.456 0 0 0-19.328-19.456z" p-id="9261"></path><path d="M303.872 719.744a5.376 5.376 0 0 1-5.376-5.504V640a5.376 5.376 0 0 1 10.752 0v74.24a5.376 5.376 0 0 1-5.376 5.504zM724.992 723.584a46.464 46.464 0 1 1 46.464-46.464 46.592 46.592 0 0 1-46.464 46.464z m0-82.048a35.584 35.584 0 1 0 35.712 35.584 35.584 35.584 0 0 0-35.712-35.584z" p-id="9262"></path><path d="M786.944 779.136H663.04a30.208 30.208 0 0 1-30.208-30.208V605.312a30.208 30.208 0 0 1 30.208-30.208h123.904a30.208 30.208 0 0 1 30.208 30.208v143.616a30.208 30.208 0 0 1-30.208 30.208z m-123.904-193.28a19.456 19.456 0 0 0-19.328 19.456v143.616A19.456 19.456 0 0 0 663.04 768h123.904A19.328 19.328 0 0 0 806.4 748.928V605.312a19.328 19.328 0 0 0-19.328-19.456zM786.944 533.888H241.92a30.208 30.208 0 0 1-30.208-30.208v-113.92a30.208 30.208 0 0 1 30.208-30.208h545.024a30.208 30.208 0 0 1 30.208 30.208v113.92a30.208 30.208 0 0 1-30.208 30.208zM241.92 370.432a19.328 19.328 0 0 0-19.328 19.328v113.92a19.456 19.456 0 0 0 19.328 19.328h545.024A19.328 19.328 0 0 0 806.4 503.68v-113.92a19.2 19.2 0 0 0-19.328-19.328zM711.424 322.688a5.376 5.376 0 0 1-5.504-5.376v-58.88a19.328 19.328 0 0 0-19.328-19.328h-344.32a19.456 19.456 0 0 0-19.328 19.328v58.88a5.504 5.504 0 0 1-10.88 0v-58.88a30.208 30.208 0 0 1 30.208-30.208h344.32A30.208 30.208 0 0 1 716.8 258.432v58.88a5.376 5.376 0 0 1-5.376 5.376z" p-id="9263"></path><path d="M711.424 322.688H317.44a5.504 5.504 0 0 1 0-10.88h393.984a5.504 5.504 0 0 1 0 10.88z" p-id="9264"></path><path d="M830.208 838.656H198.656a49.024 49.024 0 0 1-48.896-48.896V361.344a49.024 49.024 0 0 1 48.896-48.896h631.552a49.024 49.024 0 0 1 48.896 48.896V789.76a48.896 48.896 0 0 1-48.896 48.896zM198.656 323.328a38.4 38.4 0 0 0-38.4 38.4V789.76a38.4 38.4 0 0 0 38.4 38.4h631.552a38.4 38.4 0 0 0 38.4-38.4V361.344a38.4 38.4 0 0 0-38.4-38.4z" p-id="9265"></path></svg>