<svg width="80" viewBox="0 0 1024 1024" version="1.1" xmlns="http://www.w3.org/2000/svg" p-id="6593" xmlns:xlink="http://www.w3.org/1999/xlink"><path d="M714.368 881.152H333.696A27.136 27.136 0 0 1 307.2 854.016V167.552A27.136 27.136 0 0 1 333.696 140.8h380.672a27.136 27.136 0 0 1 27.136 27.136v686.08a27.136 27.136 0 0 1-27.136 27.136z m-380.672-729.6a16.256 16.256 0 0 0-16.384 16.256v686.208A16.256 16.256 0 0 0 333.696 870.4h380.672a16.256 16.256 0 0 0 16.256-16.256V167.552a16.256 16.256 0 0 0-16.256-16.256z" p-id="6594"></path><path d="M548.992 411.264h-19.712l3.712-40.064-40.704 53.248H512l-3.712 41.344zM519.04 720.768a5.376 5.376 0 0 1-5.376-5.504v-67.968a5.376 5.376 0 0 1 5.376-5.504 5.376 5.376 0 0 1 5.376 5.504v67.968a5.376 5.376 0 0 1-5.376 5.504z" p-id="6595"></path><path d="M524.032 568.064A155.904 155.904 0 1 1 679.808 412.16a156.032 156.032 0 0 1-155.776 155.904z m0-300.928A145.024 145.024 0 1 0 668.928 412.16a145.28 145.28 0 0 0-144.896-145.024z" p-id="6596"></path></svg>